# xmcd
# 
# Track frame offsets:
#     150
#     13800
#     28683
#     37041
#     48148
#     63533
#     73463
#     85522
#     99654
#     110431
#     119474
#     130537
# 
# Disc length: 1921
# 
# Revision: 1
# Processed by: cddbd v1.5.2PL0 Copyright (c) Steve Scherf et al.
# Submitted via: fre:ac v1.0.17
# 
DISCID=a2077f0c
DTITLE=JJ Cale - Really
DYEAR=0
DGENRE=Blues
TTITLE0=Lies
TTITLE1=Everything will be allright
TTITLE2=I'll kiss the world goodbye
TTITLE3=Changes 
TTITLE4=Right down here
TTITLE5=If you're ever in oklahoma
TTITLE6=Ridin' home
TTITLE7=Going down
TTITLE8=Soulin
TTITLE9=Playing in the street
TTITLE10=Got my mo jo working
TTITLE11=Lousiana women
EXTD=
EXTT0=
EXTT1=
EXTT2=
EXTT3=
EXTT4=
EXTT5=
EXTT6=
EXTT7=
EXTT8=
EXTT9=
EXTT10=
EXTT11=
PLAYORDER=
